<svg xmlns="http://www.w3.org/2000/svg" version="1.1" xmlns:xlink="http://www.w3.org/1999/xlink" xmlns:svgjs="http://svgjs.dev/svgjs" width="1000" height="292" viewBox="0 0 1000 292"><g transform="matrix(1,0,0,1,-0.6060606060606233,-0.11276095218858018)"><svg viewBox="0 0 396 116" data-background-color="#ffffff" preserveAspectRatio="xMidYMid meet" height="292" width="1000" xmlns="http://www.w3.org/2000/svg" xmlns:xlink="http://www.w3.org/1999/xlink"><defs></defs><g id="tight-bounds" transform="matrix(1,0,0,1,0.2400000000000091,0.044795446759849256)"><svg viewBox="0 0 395.52 115.91040300183498" height="115.91040300183498" width="395.52"><g><svg viewBox="0 0 502.16589905010915 147.16386461538465" height="115.91040300183498" width="395.52"><g><rect width="6.402020831704616" height="85.18892307692307" x="83.48466138148149" y="30.98747076923079" fill="#528265" opacity="1" stroke-width="0" stroke="transparent" fill-opacity="1" class="rect-o-0" data-fill-palette-color="primary" rx="1%" id="o-0" data-palette-color="#528265"></rect></g><g transform="matrix(1,0,0,1,106.64589905010918,38.08654769230771)"><svg viewBox="0 0 395.52 70.99076923076923" height="70.99076923076923" width="395.52"><g><svg viewBox="0 0 395.52 70.99076923076923" height="70.99076923076923" width="395.52"><g><svg viewBox="0 0 395.52 70.99076923076923" height="70.99076923076923" width="395.52"><g transform="matrix(1,0,0,1,0,0)"><svg width="395.52" viewBox="0 -50 243.74000549316406 43.75" height="70.99076923076923" data-palette-color="#528265"><path d="M12.5-6.25L0-6.25 0-50 37.5-50 37.5-43.75 43.75-43.75 43.75-25 31.25-25 31.25-18.75 37.5-18.75 37.5-12.5 43.75-12.5 43.75-6.25 25-6.25 25-12.5 18.75-12.5 18.75-18.75 12.5-18.75 12.5-6.25ZM12.5-43.75L12.5-25 25-25 25-31.25 31.25-31.25 31.25-43.75 12.5-43.75ZM62.5-6.25L50-6.25 50-37.5 56.25-37.5 56.25-43.75 62.5-43.75 62.5-50 81.25-50 81.25-43.75 87.5-43.75 87.5-37.5 93.75-37.5 93.75-6.25 81.25-6.25 81.25-18.75 62.5-18.75 62.5-6.25ZM62.5-37.5L62.5-25 81.25-25 81.25-37.5 75-37.5 75-43.75 68.75-43.75 68.75-37.5 62.5-37.5ZM125-6.25L118.75-6.25 118.75-12.5 112.5-12.5 112.5-18.75 106.25-18.75 106.25-25 100-25 100-50 112.5-50 112.5-31.25 118.75-31.25 118.75-25 125-25 125-31.25 131.25-31.25 131.25-50 143.75-50 143.75-25 137.5-25 137.5-18.75 131.25-18.75 131.25-12.5 125-12.5 125-6.25ZM193.74-6.25L149.99-6.25 149.99-50 193.74-50 193.74-43.75 162.49-43.75 162.49-31.25 187.49-31.25 187.49-25 162.49-25 162.49-12.5 193.74-12.5 193.74-6.25ZM243.74-6.25L206.24-6.25 206.24-50 218.74-50 218.74-12.5 243.74-12.5 243.74-6.25Z" opacity="1" transform="matrix(1,0,0,1,0,0)" fill="#528265" class="undefined-text-0" data-fill-palette-color="primary" id="text-0"></path></svg></g></svg></g></svg></g></svg></g><g><svg viewBox="0 0 66.72544454455841 147.16386461538465" height="147.16386461538465" width="66.72544454455841"><g><svg xmlns="http://www.w3.org/2000/svg" xmlns:xlink="http://www.w3.org/1999/xlink" version="1.1" x="0" y="0" viewBox="14.589998245239258 2.0399999618530273 20.821001052856445 45.920997619628906" enable-background="new 0 0 50 50" xml:space="preserve" height="147.16386461538465" width="66.72544454455841" class="icon-icon-0" data-fill-palette-color="accent" id="icon-0"><g fill="#528265" data-fill-palette-color="accent"><path fill="#528265" d="M32.913 37.945c-2.654 0.969-3.091 0.826-3.486 0.541-0.169-0.121-0.215-0.229-0.236-0.311-0.027-0.129-0.122-0.807-0.122-4.092V22.918h5.579v-9.047h-5.579V2.04l-10.73 6.241v5.591h-3.749v9.047h3.749v12.179c0 2.996 0.094 4.951 0.277 5.953 0.239 1.523 0.698 2.771 1.363 3.713 0.689 0.98 1.751 1.771 3.147 2.357 1.33 0.557 2.835 0.84 4.472 0.84 2.561 0 4.897-0.445 6.948-1.326l0.865-0.369-0.976-8.877L32.913 37.945zM27.598 45.424c-1.296 0-2.473-0.215-3.49-0.643-0.951-0.396-1.642-0.896-2.054-1.479-0.437-0.621-0.749-1.51-0.938-2.678-0.108-0.596-0.239-2.039-0.239-5.523v-14.72h-3.749v-3.967h3.749V9.745l5.65-3.287v9.957h5.578v3.967h-5.578v13.707c0 3.457 0.098 4.314 0.2 4.713 0.181 0.703 0.601 1.307 1.219 1.752 1.035 0.74 2.255 0.852 4.31 0.277l0.417 3.807C31.155 45.158 29.452 45.424 27.598 45.424z" data-fill-palette-color="accent"></path></g></svg></g></svg></g></svg></g></svg><rect width="395.52" height="115.91040300183498" fill="none" stroke="none" visibility="hidden"></rect></g></svg></g></svg>