<?xml version="1.0" encoding="UTF-8" standalone="no"?>
<!-- Created with Inkscape (http://www.inkscape.org/) -->

<svg
   width="297mm"
   height="210mm"
   viewBox="0 0 297 210"
   version="1.1"
   id="svg5"
   xml:space="preserve"
   inkscape:version="1.2.1 (9c6d41e410, 2022-07-14, custom)"
   sodipodi:docname="tRavel-logo.svg"
   xmlns:inkscape="http://www.inkscape.org/namespaces/inkscape"
   xmlns:sodipodi="http://sodipodi.sourceforge.net/DTD/sodipodi-0.dtd"
   xmlns="http://www.w3.org/2000/svg"
   xmlns:svg="http://www.w3.org/2000/svg"><sodipodi:namedview
     id="namedview7"
     pagecolor="#ffffff"
     bordercolor="#000000"
     borderopacity="0.25"
     inkscape:showpageshadow="2"
     inkscape:pageopacity="0.0"
     inkscape:pagecheckerboard="0"
     inkscape:deskcolor="#d1d1d1"
     inkscape:document-units="mm"
     showgrid="false"
     inkscape:zoom="0.24594814"
     inkscape:cx="693.23557"
     inkscape:cy="609.88467"
     inkscape:window-width="1366"
     inkscape:window-height="699"
     inkscape:window-x="0"
     inkscape:window-y="0"
     inkscape:window-maximized="1"
     inkscape:current-layer="layer1" /><defs
     id="defs2" /><g
     inkscape:label="Layer 1"
     inkscape:groupmode="layer"
     id="layer1"><g
       id="g382"
       transform="matrix(0.25252301,0,0,0.25252301,23.462737,68.386823)"><svg
         viewBox="0 0 396 116"
         data-background-color="#ffffff"
         preserveAspectRatio="xMidYMid"
         height="292"
         width="1000"
         version="1.1"
         id="svg224"><defs
           id="defs182" /><g
           id="tight-bounds"
           transform="translate(0.24,0.04479545)"><svg
             viewBox="0 0 395.52 115.9104"
             height="115.9104"
             width="395.51999"
             version="1.1"
             id="svg219"><g
               id="g217"><svg
                 viewBox="0 0 502.1659 147.16386"
                 height="115.9104"
                 width="395.51999"
                 version="1.1"
                 id="svg215"><g
                   transform="translate(106.6459,38.086548)"
                   id="g202"><svg
                     viewBox="0 0 395.52 70.990769"
                     height="70.990768"
                     width="395.51999"
                     version="1.1"
                     id="svg200"><g
                       id="g198"><svg
                         viewBox="0 0 395.52 70.990769"
                         height="70.990768"
                         width="395.51999"
                         version="1.1"
                         id="svg196"><g
                           id="g194"><svg
                             viewBox="0 0 395.52 70.990769"
                             height="70.990768"
                             width="395.51999"
                             version="1.1"
                             id="svg192"><g
                               id="g190"><svg
                                 width="395.51999"
                                 viewBox="0 -50 243.74001 43.75"
                                 height="70.990768"
                                 data-palette-color="#528265"
                                 version="1.1"
                                 id="svg188"><path
                                   d="M 12.5,-6.25 H 0 V -50 h 37.5 v 6.25 h 6.25 V -25 h -12.5 v 6.25 h 6.25 v 6.25 h 6.25 v 6.25 H 25 v -6.25 h -6.25 v -6.25 H 12.5 Z m 0,-37.5 V -25 H 25 v -6.25 h 6.25 v -12.5 z m 50,37.5 H 50 V -37.5 h 6.25 v -6.25 H 62.5 V -50 h 18.75 v 6.25 h 6.25 v 6.25 h 6.25 v 31.25 h -12.5 v -12.5 H 62.5 Z m 0,-31.25 V -25 H 81.25 V -37.5 H 75 v -6.25 h -6.25 v 6.25 z M 125,-6.25 h -6.25 v -6.25 h -6.25 v -6.25 h -6.25 V -25 H 100 v -25 h 12.5 v 18.75 h 6.25 V -25 H 125 v -6.25 h 6.25 V -50 h 12.5 v 25 h -6.25 v 6.25 h -6.25 v 6.25 H 125 Z m 68.74,0 H 149.99 V -50 h 43.75 v 6.25 h -31.25 v 12.5 h 25 V -25 h -25 v 12.5 h 31.25 z m 50,0 h -37.5 V -50 h 12.5 v 37.5 h 25 z"
                                   opacity="1"
                                   fill="#528265"
                                   class="undefined-text-0"
                                   data-fill-palette-color="primary"
                                   id="text-0" /></svg></g></svg></g></svg></g></svg></g><g
                   id="g213"><svg
                     viewBox="0 0 66.725445 147.16386"
                     height="147.16386"
                     width="66.725441"
                     version="1.1"
                     id="svg211"><g
                       id="g209"><svg
                         version="1.1"
                         x="0"
                         y="0"
                         viewBox="14.589998 2.04 20.821001 45.920998"
                         enable-background="new 0 0 50 50"
                         xml:space="preserve"
                         height="147.16386"
                         width="66.725441"
                         class="icon-icon-0"
                         data-fill-palette-color="accent"
                         id="icon-0"><g
                           fill="#528265"
                           data-fill-palette-color="accent"
                           id="g206"><path
                             fill="#528265"
                             d="m 32.913,37.945 c -2.654,0.969 -3.091,0.826 -3.486,0.541 -0.169,-0.121 -0.215,-0.229 -0.236,-0.311 -0.027,-0.129 -0.122,-0.807 -0.122,-4.092 V 22.918 h 5.579 V 13.871 H 29.069 V 2.04 l -10.73,6.241 v 5.591 H 14.59 v 9.047 h 3.749 v 12.179 c 0,2.996 0.094,4.951 0.277,5.953 0.239,1.523 0.698,2.771 1.363,3.713 0.689,0.98 1.751,1.771 3.147,2.357 1.33,0.557 2.835,0.84 4.472,0.84 2.561,0 4.897,-0.445 6.948,-1.326 l 0.865,-0.369 -0.976,-8.877 z m -5.315,7.479 c -1.296,0 -2.473,-0.215 -3.49,-0.643 -0.951,-0.396 -1.642,-0.896 -2.054,-1.479 -0.437,-0.621 -0.749,-1.51 -0.938,-2.678 -0.108,-0.596 -0.239,-2.039 -0.239,-5.523 v -14.72 h -3.749 v -3.967 h 3.749 V 9.745 l 5.65,-3.287 v 9.957 h 5.578 v 3.967 h -5.578 v 13.707 c 0,3.457 0.098,4.314 0.2,4.713 0.181,0.703 0.601,1.307 1.219,1.752 1.035,0.74 2.255,0.852 4.31,0.277 l 0.417,3.807 c -1.518,0.52 -3.221,0.786 -5.075,0.786 z"
                             data-fill-palette-color="accent"
                             id="path204" /></g></svg></g></svg></g></svg></g></svg><rect
             width="395.51999"
             height="115.9104"
             fill="none"
             stroke="none"
             visibility="hidden"
             id="rect221"
             x="0"
             y="0" /></g></svg></g></g></svg>
